<svg width="719" height="625" viewBox="0 0 719 625" fill="none" xmlns="http://www.w3.org/2000/svg">
<g clip-path="url(#clip0_816_2242)">
<path d="M-63.9404 382H782.94V625H-63.9404V382Z" fill="#F5F6F7"/>
<g opacity="0.5" filter="url(#filter0_d_816_2242)">
<ellipse cx="361.092" cy="83.0728" rx="31.0919" ry="31.0728" fill="#333333"/>
</g>
<path d="M378.656 85.1442L362.292 68.7901C362.014 68.5121 361.634 68.3545 361.24 68.3545H347.851C347.03 68.3545 346.364 69.0206 346.364 69.8412V83.2219C346.364 83.6158 346.52 83.995 346.8 84.273L363.164 100.627C363.454 100.918 363.835 101.063 364.215 101.063C364.596 101.063 364.977 100.917 365.267 100.627L378.656 87.2465C379.237 86.6666 379.237 85.7255 378.656 85.1442ZM355.29 80.2484C353.646 80.2484 352.314 78.9178 352.314 77.2749C352.314 75.6321 353.646 74.3014 355.29 74.3014C356.933 74.3014 358.265 75.6321 358.265 77.2749C358.265 78.9178 356.933 80.2484 355.29 80.2484Z" fill="white"/>
<g opacity="0.5" filter="url(#filter1_d_816_2242)">
<ellipse cx="496.092" cy="192.073" rx="31.0919" ry="31.0728" fill="#333333"/>
</g>
<path d="M512.292 192.79L495.928 176.436C495.65 176.158 495.271 176 494.876 176H481.488C480.666 176 480 176.666 480 177.487V190.867C480 191.261 480.156 191.64 480.436 191.918L496.8 208.273C497.09 208.564 497.471 208.708 497.852 208.708C498.232 208.708 498.613 208.563 498.903 208.273L512.292 194.892C512.874 194.312 512.874 193.371 512.292 192.79ZM488.926 187.894C487.282 187.894 485.951 186.563 485.951 184.92C485.951 183.278 487.282 181.947 488.926 181.947C490.57 181.947 491.901 183.278 491.901 184.92C491.901 186.563 490.57 187.894 488.926 187.894Z" fill="white"/>
<g opacity="0.5" filter="url(#filter2_d_816_2242)">
<ellipse cx="97.0919" cy="281.073" rx="31.0919" ry="31.0728" fill="#333333"/>
</g>
<path d="M114.656 283.145L98.2923 266.79C98.0142 266.512 97.6348 266.355 97.2406 266.355H83.8519C83.0307 266.355 82.3643 267.021 82.3643 267.842V281.222C82.3643 281.616 82.5205 281.995 82.8001 282.273L99.1641 298.627C99.4542 298.919 99.835 299.063 100.216 299.063C100.597 299.063 100.978 298.917 101.268 298.627L114.656 285.247C115.238 284.667 115.238 283.726 114.656 283.145ZM91.2901 278.249C89.6462 278.249 88.3148 276.918 88.3148 275.275C88.3148 273.632 89.6462 272.302 91.2901 272.302C92.9339 272.302 94.2653 273.632 94.2653 275.275C94.2653 276.918 92.9339 278.249 91.2901 278.249Z" fill="white"/>
<path d="M-63.9395 382H782.941V625H-63.9395V382Z" fill="#F5F6F7"/>
<path d="M80.4658 490.936H73.9858C74.0498 492.6 74.4178 493.992 75.0898 495.112C75.7938 496.2 76.6738 497.08 77.7298 497.752C78.8178 498.424 80.0498 498.904 81.4258 499.192C82.8018 499.48 84.2098 499.624 85.6498 499.624C87.0578 499.624 88.4338 499.48 89.7778 499.192C91.1538 498.936 92.3698 498.472 93.4258 497.8C94.4818 497.128 95.3298 496.248 95.9698 495.16C96.6418 494.04 96.9778 492.664 96.9778 491.032C96.9778 489.88 96.7538 488.92 96.3058 488.152C95.8578 487.352 95.2658 486.696 94.5298 486.184C93.7938 485.64 92.9458 485.208 91.9858 484.888C91.0578 484.568 90.0978 484.296 89.1058 484.072C88.1458 483.848 87.2018 483.64 86.2738 483.448C85.3458 483.256 84.5138 483.048 83.7778 482.824C83.0738 482.568 82.4978 482.248 82.0498 481.864C81.6018 481.48 81.3778 480.984 81.3778 480.376C81.3778 479.864 81.5058 479.464 81.7618 479.176C82.0178 478.856 82.3218 478.616 82.6738 478.456C83.0578 478.296 83.4738 478.2 83.9218 478.168C84.3698 478.104 84.7858 478.072 85.1698 478.072C86.3858 478.072 87.4418 478.312 88.3378 478.792C89.2338 479.24 89.7298 480.12 89.8258 481.432H96.3058C96.1778 479.896 95.7778 478.632 95.1058 477.64C94.4658 476.616 93.6498 475.8 92.6578 475.192C91.6658 474.584 90.5298 474.152 89.2498 473.896C88.0018 473.64 86.7058 473.512 85.3618 473.512C84.0178 473.512 82.7058 473.64 81.4258 473.896C80.1458 474.12 78.9938 474.536 77.9698 475.144C76.9458 475.72 76.1138 476.52 75.4738 477.544C74.8658 478.568 74.5618 479.88 74.5618 481.48C74.5618 482.568 74.7858 483.496 75.2338 484.264C75.6818 485 76.2738 485.624 77.0098 486.136C77.7458 486.616 78.5778 487.016 79.5058 487.336C80.4658 487.624 81.4418 487.88 82.4338 488.104C84.8658 488.616 86.7538 489.128 88.0978 489.64C89.4738 490.152 90.1618 490.92 90.1618 491.944C90.1618 492.552 90.0178 493.064 89.7298 493.48C89.4418 493.864 89.0738 494.184 88.6258 494.44C88.2098 494.664 87.7298 494.84 87.1858 494.968C86.6738 495.064 86.1778 495.112 85.6978 495.112C85.0258 495.112 84.3698 495.032 83.7298 494.872C83.1218 494.712 82.5778 494.472 82.0978 494.152C81.6178 493.8 81.2178 493.368 80.8978 492.856C80.6098 492.312 80.4658 491.672 80.4658 490.936ZM100.679 481.816C100.775 480.216 101.175 478.888 101.879 477.832C102.583 476.776 103.479 475.928 104.567 475.288C105.655 474.648 106.871 474.2 108.215 473.944C109.591 473.656 110.967 473.512 112.343 473.512C113.591 473.512 114.855 473.608 116.135 473.8C117.415 473.96 118.583 474.296 119.639 474.808C120.695 475.32 121.559 476.04 122.231 476.968C122.903 477.864 123.239 479.064 123.239 480.568V493.48C123.239 494.6 123.303 495.672 123.431 496.696C123.559 497.72 123.783 498.488 124.103 499H117.191C117.063 498.616 116.951 498.232 116.855 497.848C116.791 497.432 116.743 497.016 116.711 496.6C115.623 497.72 114.343 498.504 112.871 498.952C111.399 499.4 109.895 499.624 108.359 499.624C107.175 499.624 106.071 499.48 105.047 499.192C104.023 498.904 103.127 498.456 102.359 497.848C101.591 497.24 100.983 496.472 100.535 495.544C100.119 494.616 99.911 493.512 99.911 492.232C99.911 490.824 100.151 489.672 100.631 488.776C101.143 487.848 101.783 487.112 102.551 486.568C103.351 486.024 104.247 485.624 105.239 485.368C106.263 485.08 107.287 484.856 108.311 484.696C109.335 484.536 110.343 484.408 111.335 484.312C112.327 484.216 113.207 484.072 113.975 483.88C114.743 483.688 115.351 483.416 115.799 483.064C116.247 482.68 116.455 482.136 116.423 481.432C116.423 480.696 116.295 480.12 116.039 479.704C115.815 479.256 115.495 478.92 115.079 478.696C114.695 478.44 114.231 478.28 113.687 478.216C113.175 478.12 112.615 478.072 112.007 478.072C110.663 478.072 109.607 478.36 108.839 478.936C108.071 479.512 107.623 480.472 107.495 481.816H100.679ZM116.423 486.856C116.135 487.112 115.767 487.32 115.319 487.48C114.903 487.608 114.439 487.72 113.927 487.816C113.447 487.912 112.935 487.992 112.391 488.056C111.847 488.12 111.303 488.2 110.759 488.296C110.247 488.392 109.735 488.52 109.223 488.68C108.743 488.84 108.311 489.064 107.927 489.352C107.575 489.608 107.287 489.944 107.063 490.36C106.839 490.776 106.727 491.304 106.727 491.944C106.727 492.552 106.839 493.064 107.063 493.48C107.287 493.896 107.591 494.232 107.975 494.488C108.359 494.712 108.807 494.872 109.319 494.968C109.831 495.064 110.359 495.112 110.903 495.112C112.247 495.112 113.287 494.888 114.023 494.44C114.759 493.992 115.303 493.464 115.655 492.856C116.007 492.216 116.215 491.576 116.279 490.936C116.375 490.296 116.423 489.784 116.423 489.4V486.856ZM142.258 499L150.658 474.184H143.89L138.658 491.128H138.562L133.33 474.184H126.178L134.674 499H142.258ZM160.475 470.344V464.728H153.659V470.344H160.475ZM153.659 474.184V499H160.475V474.184H153.659ZM165.842 474.184V499H172.658V485.992C172.658 483.464 173.074 481.656 173.906 480.568C174.738 479.448 176.082 478.888 177.938 478.888C179.57 478.888 180.706 479.4 181.346 480.424C181.986 481.416 182.306 482.936 182.306 484.984V499H189.122V483.736C189.122 482.2 188.978 480.808 188.69 479.56C188.434 478.28 187.97 477.208 187.298 476.344C186.626 475.448 185.698 474.76 184.514 474.28C183.362 473.768 181.874 473.512 180.05 473.512C178.61 473.512 177.202 473.848 175.826 474.52C174.45 475.16 173.33 476.2 172.466 477.64H172.322V474.184H165.842ZM205.863 493.144C204.807 493.144 203.927 492.92 203.223 492.472C202.519 492.024 201.943 491.448 201.495 490.744C201.079 490.04 200.775 489.256 200.583 488.392C200.423 487.496 200.343 486.6 200.343 485.704C200.343 484.776 200.439 483.896 200.631 483.064C200.855 482.2 201.191 481.448 201.639 480.808C202.119 480.136 202.695 479.608 203.367 479.224C204.071 478.84 204.903 478.648 205.863 478.648C206.983 478.648 207.911 478.856 208.647 479.272C209.383 479.688 209.975 480.248 210.423 480.952C210.871 481.656 211.191 482.472 211.383 483.4C211.575 484.296 211.671 485.256 211.671 486.28C211.671 487.176 211.543 488.04 211.287 488.872C211.063 489.672 210.711 490.392 210.231 491.032C209.751 491.672 209.143 492.184 208.407 492.568C207.671 492.952 206.823 493.144 205.863 493.144ZM218.151 497.416V474.184H211.671V477.496H211.575C210.743 476.056 209.703 475.032 208.455 474.424C207.239 473.816 205.815 473.512 204.183 473.512C202.455 473.512 200.919 473.848 199.575 474.52C198.263 475.192 197.159 476.104 196.263 477.256C195.367 478.376 194.679 479.688 194.199 481.192C193.751 482.664 193.527 484.2 193.527 485.8C193.527 487.496 193.719 489.112 194.103 490.648C194.519 492.152 195.159 493.48 196.023 494.632C196.887 495.752 197.991 496.648 199.335 497.32C200.679 497.96 202.279 498.28 204.135 498.28C205.639 498.28 207.063 497.976 208.407 497.368C209.783 496.728 210.839 495.752 211.575 494.44H211.671V497.704C211.703 499.464 211.271 500.92 210.375 502.072C209.511 503.224 208.119 503.8 206.199 503.8C204.983 503.8 203.911 503.544 202.983 503.032C202.055 502.552 201.431 501.672 201.111 500.392H194.343C194.439 501.8 194.823 503 195.495 503.992C196.199 505.016 197.063 505.848 198.087 506.488C199.143 507.128 200.295 507.592 201.543 507.88C202.823 508.2 204.071 508.36 205.287 508.36C208.135 508.36 210.407 507.976 212.103 507.208C213.799 506.44 215.095 505.496 215.991 504.376C216.887 503.288 217.463 502.104 217.719 500.824C218.007 499.544 218.151 498.408 218.151 497.416ZM228.919 490.936H222.439C222.503 492.6 222.871 493.992 223.543 495.112C224.247 496.2 225.127 497.08 226.183 497.752C227.271 498.424 228.503 498.904 229.879 499.192C231.255 499.48 232.663 499.624 234.103 499.624C235.511 499.624 236.887 499.48 238.231 499.192C239.607 498.936 240.823 498.472 241.879 497.8C242.935 497.128 243.783 496.248 244.423 495.16C245.095 494.04 245.431 492.664 245.431 491.032C245.431 489.88 245.207 488.92 244.759 488.152C244.311 487.352 243.719 486.696 242.983 486.184C242.247 485.64 241.399 485.208 240.439 484.888C239.511 484.568 238.551 484.296 237.559 484.072C236.599 483.848 235.655 483.64 234.727 483.448C233.799 483.256 232.967 483.048 232.231 482.824C231.527 482.568 230.951 482.248 230.503 481.864C230.055 481.48 229.831 480.984 229.831 480.376C229.831 479.864 229.959 479.464 230.215 479.176C230.471 478.856 230.775 478.616 231.127 478.456C231.511 478.296 231.927 478.2 232.375 478.168C232.823 478.104 233.239 478.072 233.623 478.072C234.839 478.072 235.895 478.312 236.791 478.792C237.687 479.24 238.183 480.12 238.279 481.432H244.759C244.631 479.896 244.231 478.632 243.559 477.64C242.919 476.616 242.103 475.8 241.111 475.192C240.119 474.584 238.983 474.152 237.703 473.896C236.455 473.64 235.159 473.512 233.815 473.512C232.471 473.512 231.159 473.64 229.879 473.896C228.599 474.12 227.447 474.536 226.423 475.144C225.399 475.72 224.567 476.52 223.927 477.544C223.319 478.568 223.015 479.88 223.015 481.48C223.015 482.568 223.239 483.496 223.687 484.264C224.135 485 224.727 485.624 225.463 486.136C226.199 486.616 227.031 487.016 227.959 487.336C228.919 487.624 229.895 487.88 230.887 488.104C233.319 488.616 235.207 489.128 236.551 489.64C237.927 490.152 238.615 490.92 238.615 491.944C238.615 492.552 238.471 493.064 238.183 493.48C237.895 493.864 237.527 494.184 237.079 494.44C236.663 494.664 236.183 494.84 235.639 494.968C235.127 495.064 234.631 495.112 234.151 495.112C233.479 495.112 232.823 495.032 232.183 494.872C231.575 494.712 231.031 494.472 230.551 494.152C230.071 493.8 229.671 493.368 229.351 492.856C229.063 492.312 228.919 491.672 228.919 490.936ZM282.46 495.592L285.244 499H293.596L286.635 490.888C287.596 489.672 288.348 488.344 288.892 486.904C289.436 485.464 289.788 483.976 289.948 482.44H284.044C283.948 483.144 283.804 483.848 283.612 484.552C283.42 485.224 283.148 485.88 282.796 486.52L278.38 481.096C280.108 480.168 281.548 479.016 282.7 477.64C283.884 476.264 284.476 474.568 284.476 472.552C284.476 471.208 284.22 470.024 283.708 469C283.228 467.976 282.556 467.128 281.692 466.456C280.86 465.752 279.868 465.224 278.716 464.872C277.596 464.52 276.38 464.344 275.068 464.344C273.916 464.344 272.796 464.536 271.708 464.92C270.652 465.272 269.708 465.8 268.876 466.504C268.044 467.176 267.372 467.992 266.86 468.952C266.38 469.912 266.14 470.984 266.14 472.168C266.14 473.672 266.444 474.984 267.052 476.104C267.692 477.224 268.476 478.344 269.404 479.464C268.412 479.944 267.452 480.504 266.523 481.144C265.596 481.784 264.764 482.52 264.028 483.352C263.324 484.152 262.764 485.064 262.348 486.088C261.932 487.08 261.724 488.184 261.724 489.4C261.724 491.032 262.012 492.488 262.588 493.768C263.164 495.016 263.948 496.088 264.94 496.984C265.932 497.848 267.1 498.504 268.444 498.952C269.82 499.4 271.276 499.624 272.812 499.624C274.764 499.624 276.508 499.288 278.044 498.616C279.612 497.944 281.084 496.936 282.46 495.592ZM273.004 483.88L278.86 491.032C278.06 491.928 277.196 492.664 276.268 493.24C275.372 493.784 274.316 494.056 273.1 494.056C272.46 494.056 271.836 493.944 271.228 493.72C270.652 493.464 270.14 493.144 269.692 492.76C269.244 492.344 268.876 491.864 268.588 491.32C268.332 490.744 268.204 490.152 268.204 489.544C268.204 488.84 268.332 488.2 268.588 487.624C268.876 487.048 269.244 486.52 269.692 486.04C270.14 485.56 270.652 485.144 271.228 484.792C271.804 484.44 272.396 484.136 273.004 483.88ZM278.524 472.168C278.524 473.416 278.172 474.392 277.468 475.096C276.796 475.8 275.98 476.456 275.02 477.064C274.38 476.264 273.772 475.48 273.196 474.712C272.62 473.944 272.332 473.016 272.332 471.928C272.332 471.032 272.636 470.312 273.244 469.768C273.852 469.192 274.572 468.904 275.404 468.904C276.236 468.904 276.956 469.224 277.564 469.864C278.204 470.504 278.524 471.272 278.524 472.168ZM314.278 490.936H307.798C307.862 492.6 308.23 493.992 308.902 495.112C309.606 496.2 310.486 497.08 311.542 497.752C312.63 498.424 313.862 498.904 315.238 499.192C316.614 499.48 318.022 499.624 319.462 499.624C320.87 499.624 322.246 499.48 323.59 499.192C324.966 498.936 326.182 498.472 327.238 497.8C328.294 497.128 329.142 496.248 329.782 495.16C330.454 494.04 330.79 492.664 330.79 491.032C330.79 489.88 330.566 488.92 330.118 488.152C329.67 487.352 329.078 486.696 328.342 486.184C327.606 485.64 326.758 485.208 325.798 484.888C324.87 484.568 323.91 484.296 322.918 484.072C321.958 483.848 321.014 483.64 320.086 483.448C319.158 483.256 318.326 483.048 317.59 482.824C316.886 482.568 316.31 482.248 315.862 481.864C315.414 481.48 315.19 480.984 315.19 480.376C315.19 479.864 315.318 479.464 315.574 479.176C315.83 478.856 316.134 478.616 316.486 478.456C316.87 478.296 317.286 478.2 317.734 478.168C318.182 478.104 318.598 478.072 318.982 478.072C320.198 478.072 321.254 478.312 322.15 478.792C323.046 479.24 323.542 480.12 323.638 481.432H330.118C329.99 479.896 329.59 478.632 328.918 477.64C328.278 476.616 327.462 475.8 326.47 475.192C325.478 474.584 324.342 474.152 323.062 473.896C321.814 473.64 320.518 473.512 319.174 473.512C317.83 473.512 316.518 473.64 315.238 473.896C313.958 474.12 312.806 474.536 311.782 475.144C310.758 475.72 309.926 476.52 309.286 477.544C308.678 478.568 308.374 479.88 308.374 481.48C308.374 482.568 308.598 483.496 309.046 484.264C309.494 485 310.086 485.624 310.822 486.136C311.558 486.616 312.39 487.016 313.318 487.336C314.278 487.624 315.254 487.88 316.246 488.104C318.678 488.616 320.566 489.128 321.91 489.64C323.286 490.152 323.974 490.92 323.974 491.944C323.974 492.552 323.83 493.064 323.542 493.48C323.254 493.864 322.886 494.184 322.438 494.44C322.022 494.664 321.542 494.84 320.998 494.968C320.486 495.064 319.99 495.112 319.51 495.112C318.838 495.112 318.182 495.032 317.542 494.872C316.934 494.712 316.39 494.472 315.91 494.152C315.43 493.8 315.03 493.368 314.71 492.856C314.422 492.312 314.278 491.672 314.278 490.936ZM343.42 474.184V466.744H336.604V474.184H332.476V478.744H336.604V493.384C336.604 494.632 336.812 495.64 337.228 496.408C337.644 497.176 338.204 497.768 338.908 498.184C339.644 498.6 340.476 498.872 341.404 499C342.364 499.16 343.372 499.24 344.428 499.24C345.1 499.24 345.788 499.224 346.492 499.192C347.196 499.16 347.836 499.096 348.412 499V493.72C348.092 493.784 347.756 493.832 347.404 493.864C347.052 493.896 346.684 493.912 346.299 493.912C345.148 493.912 344.38 493.72 343.996 493.336C343.612 492.952 343.42 492.184 343.42 491.032V478.744H348.412V474.184H343.42ZM363.895 502.072L374.263 474.184H367.207L361.783 491.176H361.687L356.071 474.184H348.822L357.511 497.464C357.703 497.944 357.799 498.456 357.799 499C357.799 499.736 357.575 500.408 357.127 501.016C356.711 501.624 356.055 501.976 355.159 502.072C354.487 502.104 353.815 502.088 353.143 502.024C352.471 501.96 351.815 501.896 351.175 501.832V507.448C351.879 507.512 352.567 507.56 353.239 507.592C353.943 507.656 354.647 507.688 355.351 507.688C357.687 507.688 359.511 507.256 360.823 506.392C362.135 505.528 363.159 504.088 363.895 502.072ZM376.737 464.728V499H383.553V464.728H376.737ZM405.624 483.928H394.536C394.568 483.448 394.664 482.904 394.824 482.296C395.016 481.688 395.32 481.112 395.736 480.568C396.184 480.024 396.76 479.576 397.464 479.224C398.2 478.84 399.112 478.648 400.2 478.648C401.864 478.648 403.096 479.096 403.896 479.992C404.728 480.888 405.304 482.2 405.624 483.928ZM394.536 488.248H412.44C412.568 486.328 412.408 484.488 411.96 482.728C411.512 480.968 410.776 479.4 409.752 478.024C408.76 476.648 407.48 475.56 405.912 474.76C404.344 473.928 402.504 473.512 400.392 473.512C398.504 473.512 396.776 473.848 395.208 474.52C393.672 475.192 392.344 476.12 391.224 477.304C390.104 478.456 389.24 479.832 388.632 481.432C388.024 483.032 387.72 484.76 387.72 486.616C387.72 488.536 388.008 490.296 388.584 491.896C389.192 493.496 390.04 494.872 391.128 496.024C392.216 497.176 393.544 498.072 395.112 498.712C396.68 499.32 398.44 499.624 400.392 499.624C403.208 499.624 405.608 498.984 407.592 497.704C409.576 496.424 411.048 494.296 412.008 491.32H406.008C405.784 492.088 405.176 492.824 404.184 493.528C403.192 494.2 402.008 494.536 400.632 494.536C398.712 494.536 397.24 494.04 396.216 493.048C395.192 492.056 394.632 490.456 394.536 488.248ZM436.85 470.344V464.728H430.034V470.344H436.85ZM430.034 474.184V499H436.85V474.184H430.034ZM442.217 474.184V499H449.033V485.992C449.033 483.464 449.449 481.656 450.281 480.568C451.113 479.448 452.457 478.888 454.313 478.888C455.945 478.888 457.081 479.4 457.721 480.424C458.361 481.416 458.681 482.936 458.681 484.984V499H465.497V483.736C465.497 482.2 465.353 480.808 465.065 479.56C464.809 478.28 464.345 477.208 463.673 476.344C463.001 475.448 462.073 474.76 460.889 474.28C459.737 473.768 458.249 473.512 456.425 473.512C454.985 473.512 453.577 473.848 452.201 474.52C450.825 475.16 449.705 476.2 448.841 477.64H448.697V474.184H442.217ZM484.03 474.184V499H490.846V487.816C490.846 486.696 490.958 485.656 491.182 484.696C491.406 483.736 491.774 482.904 492.286 482.2C492.83 481.464 493.534 480.888 494.398 480.472C495.262 480.056 496.318 479.848 497.566 479.848C497.982 479.848 498.414 479.88 498.862 479.944C499.31 479.976 499.694 480.024 500.014 480.088V473.752C499.47 473.592 498.974 473.512 498.526 473.512C497.662 473.512 496.83 473.64 496.03 473.896C495.23 474.152 494.478 474.52 493.773 475C493.07 475.448 492.446 476.008 491.902 476.68C491.358 477.32 490.926 478.024 490.606 478.792H490.51V474.184H484.03ZM518.546 483.928H507.458C507.49 483.448 507.586 482.904 507.746 482.296C507.938 481.688 508.242 481.112 508.658 480.568C509.106 480.024 509.682 479.576 510.386 479.224C511.122 478.84 512.034 478.648 513.122 478.648C514.786 478.648 516.018 479.096 516.818 479.992C517.65 480.888 518.226 482.2 518.546 483.928ZM507.458 488.248H525.362C525.49 486.328 525.33 484.488 524.882 482.728C524.434 480.968 523.698 479.4 522.674 478.024C521.682 476.648 520.402 475.56 518.834 474.76C517.266 473.928 515.426 473.512 513.314 473.512C511.426 473.512 509.698 473.848 508.13 474.52C506.594 475.192 505.266 476.12 504.146 477.304C503.026 478.456 502.162 479.832 501.554 481.432C500.946 483.032 500.642 484.76 500.642 486.616C500.642 488.536 500.93 490.296 501.506 491.896C502.114 493.496 502.962 494.872 504.05 496.024C505.138 497.176 506.466 498.072 508.034 498.712C509.602 499.32 511.362 499.624 513.314 499.624C516.13 499.624 518.53 498.984 520.514 497.704C522.498 496.424 523.97 494.296 524.93 491.32H518.93C518.706 492.088 518.098 492.824 517.106 493.528C516.114 494.2 514.93 494.536 513.554 494.536C511.634 494.536 510.162 494.04 509.138 493.048C508.114 492.056 507.554 490.456 507.458 488.248ZM529.117 481.816C529.213 480.216 529.613 478.888 530.317 477.832C531.021 476.776 531.917 475.928 533.005 475.288C534.093 474.648 535.309 474.2 536.653 473.944C538.029 473.656 539.405 473.512 540.781 473.512C542.029 473.512 543.293 473.608 544.573 473.8C545.853 473.96 547.021 474.296 548.077 474.808C549.133 475.32 549.997 476.04 550.669 476.968C551.341 477.864 551.677 479.064 551.677 480.568V493.48C551.677 494.6 551.741 495.672 551.869 496.696C551.997 497.72 552.221 498.488 552.541 499H545.629C545.501 498.616 545.389 498.232 545.293 497.848C545.229 497.432 545.181 497.016 545.149 496.6C544.061 497.72 542.781 498.504 541.309 498.952C539.837 499.4 538.333 499.624 536.797 499.624C535.613 499.624 534.509 499.48 533.485 499.192C532.461 498.904 531.565 498.456 530.797 497.848C530.029 497.24 529.421 496.472 528.973 495.544C528.557 494.616 528.349 493.512 528.349 492.232C528.349 490.824 528.589 489.672 529.069 488.776C529.581 487.848 530.221 487.112 530.989 486.568C531.789 486.024 532.685 485.624 533.677 485.368C534.701 485.08 535.725 484.856 536.749 484.696C537.773 484.536 538.781 484.408 539.773 484.312C540.765 484.216 541.645 484.072 542.413 483.88C543.181 483.688 543.789 483.416 544.237 483.064C544.685 482.68 544.893 482.136 544.861 481.432C544.861 480.696 544.733 480.12 544.477 479.704C544.253 479.256 543.933 478.92 543.517 478.696C543.133 478.44 542.669 478.28 542.125 478.216C541.613 478.12 541.053 478.072 540.445 478.072C539.101 478.072 538.045 478.36 537.277 478.936C536.509 479.512 536.061 480.472 535.933 481.816H529.117ZM544.861 486.856C544.573 487.112 544.205 487.32 543.757 487.48C543.341 487.608 542.877 487.72 542.365 487.816C541.885 487.912 541.373 487.992 540.829 488.056C540.285 488.12 539.741 488.2 539.197 488.296C538.685 488.392 538.173 488.52 537.661 488.68C537.181 488.84 536.749 489.064 536.365 489.352C536.013 489.608 535.725 489.944 535.501 490.36C535.277 490.776 535.165 491.304 535.165 491.944C535.165 492.552 535.277 493.064 535.501 493.48C535.725 493.896 536.029 494.232 536.413 494.488C536.797 494.712 537.245 494.872 537.757 494.968C538.269 495.064 538.797 495.112 539.341 495.112C540.685 495.112 541.725 494.888 542.461 494.44C543.197 493.992 543.741 493.464 544.093 492.856C544.445 492.216 544.653 491.576 544.717 490.936C544.813 490.296 544.861 489.784 544.861 489.4V486.856ZM557.159 464.728V499H563.975V464.728H557.159ZM582.893 464.728V499H589.709V464.728H582.893ZM602.084 470.344V464.728H595.268V470.344H602.084ZM595.268 474.184V499H602.084V474.184H595.268ZM608.939 478.744V499H615.755V478.744H620.459V474.184H615.755V472.696C615.755 471.672 615.947 470.952 616.331 470.536C616.747 470.088 617.419 469.864 618.347 469.864C619.211 469.864 620.043 469.912 620.843 470.008V464.92C620.267 464.888 619.675 464.856 619.067 464.824C618.459 464.76 617.851 464.728 617.243 464.728C614.459 464.728 612.379 465.432 611.003 466.84C609.627 468.248 608.939 470.056 608.939 472.264V474.184H604.859V478.744H608.939ZM640.14 483.928H629.052C629.084 483.448 629.18 482.904 629.34 482.296C629.532 481.688 629.836 481.112 630.252 480.568C630.7 480.024 631.276 479.576 631.98 479.224C632.716 478.84 633.628 478.648 634.716 478.648C636.38 478.648 637.612 479.096 638.412 479.992C639.244 480.888 639.82 482.2 640.14 483.928ZM629.052 488.248H646.956C647.084 486.328 646.924 484.488 646.476 482.728C646.028 480.968 645.292 479.4 644.268 478.024C643.276 476.648 641.996 475.56 640.428 474.76C638.86 473.928 637.02 473.512 634.908 473.512C633.02 473.512 631.292 473.848 629.724 474.52C628.188 475.192 626.86 476.12 625.74 477.304C624.62 478.456 623.756 479.832 623.148 481.432C622.54 483.032 622.236 484.76 622.236 486.616C622.236 488.536 622.524 490.296 623.1 491.896C623.708 493.496 624.556 494.872 625.644 496.024C626.732 497.176 628.06 498.072 629.628 498.712C631.196 499.32 632.956 499.624 634.908 499.624C637.724 499.624 640.124 498.984 642.108 497.704C644.092 496.424 645.564 494.296 646.524 491.32H640.524C640.3 492.088 639.692 492.824 638.7 493.528C637.708 494.2 636.524 494.536 635.148 494.536C633.228 494.536 631.756 494.04 630.732 493.048C629.708 492.056 629.148 490.456 629.052 488.248Z" fill="#2F3337"/>
<path d="M247.682 426.816H250.754L250.21 430.784H247.106L247.682 426.816ZM243.618 433.664L242.722 440H245.826L246.722 433.664H249.794L248.93 440H252.034L252.898 433.664H255.682V430.784H253.314L253.858 426.816H256.642V423.936H254.274L255.138 417.6H252.034L251.17 423.936H248.066L248.962 417.6H245.858L244.962 423.936H241.922V426.816H244.578L244.002 430.784H240.962V433.664H243.618ZM263.448 431.744C263.448 431.083 263.512 430.432 263.64 429.792C263.768 429.152 263.981 428.587 264.28 428.096C264.6 427.605 265.016 427.211 265.528 426.912C266.04 426.592 266.68 426.432 267.448 426.432C268.216 426.432 268.856 426.592 269.368 426.912C269.901 427.211 270.317 427.605 270.616 428.096C270.936 428.587 271.16 429.152 271.288 429.792C271.416 430.432 271.48 431.083 271.48 431.744C271.48 432.405 271.416 433.056 271.288 433.696C271.16 434.315 270.936 434.88 270.616 435.392C270.317 435.883 269.901 436.277 269.368 436.576C268.856 436.875 268.216 437.024 267.448 437.024C266.68 437.024 266.04 436.875 265.528 436.576C265.016 436.277 264.6 435.883 264.28 435.392C263.981 434.88 263.768 434.315 263.64 433.696C263.512 433.056 263.448 432.405 263.448 431.744ZM258.904 431.744C258.904 433.067 259.106 434.261 259.512 435.328C259.917 436.395 260.493 437.312 261.24 438.08C261.986 438.827 262.882 439.403 263.928 439.808C264.973 440.213 266.146 440.416 267.448 440.416C268.749 440.416 269.922 440.213 270.968 439.808C272.034 439.403 272.941 438.827 273.688 438.08C274.434 437.312 275.01 436.395 275.416 435.328C275.821 434.261 276.024 433.067 276.024 431.744C276.024 430.421 275.821 429.227 275.416 428.16C275.01 427.072 274.434 426.155 273.688 425.408C272.941 424.64 272.034 424.053 270.968 423.648C269.922 423.221 268.749 423.008 267.448 423.008C266.146 423.008 264.973 423.221 263.928 423.648C262.882 424.053 261.986 424.64 261.24 425.408C260.493 426.155 259.917 427.072 259.512 428.16C259.106 429.227 258.904 430.421 258.904 431.744ZM288.13 440L293.73 423.456H289.218L285.73 434.752H285.666L282.178 423.456H277.41L283.074 440H288.13ZM306.739 429.952H299.347C299.368 429.632 299.432 429.269 299.539 428.864C299.667 428.459 299.87 428.075 300.147 427.712C300.446 427.349 300.83 427.051 301.299 426.816C301.79 426.56 302.398 426.432 303.123 426.432C304.232 426.432 305.054 426.731 305.587 427.328C306.142 427.925 306.526 428.8 306.739 429.952ZM299.347 432.832H311.283C311.368 431.552 311.262 430.325 310.963 429.152C310.664 427.979 310.174 426.933 309.491 426.016C308.83 425.099 307.976 424.373 306.931 423.84C305.886 423.285 304.659 423.008 303.251 423.008C301.992 423.008 300.84 423.232 299.795 423.68C298.771 424.128 297.886 424.747 297.139 425.536C296.392 426.304 295.816 427.221 295.411 428.288C295.006 429.355 294.803 430.507 294.803 431.744C294.803 433.024 294.995 434.197 295.379 435.264C295.784 436.331 296.35 437.248 297.075 438.016C297.8 438.784 298.686 439.381 299.731 439.808C300.776 440.213 301.95 440.416 303.251 440.416C305.128 440.416 306.728 439.989 308.051 439.136C309.374 438.283 310.355 436.864 310.995 434.88H306.995C306.846 435.392 306.44 435.883 305.779 436.352C305.118 436.8 304.328 437.024 303.411 437.024C302.131 437.024 301.15 436.693 300.467 436.032C299.784 435.371 299.411 434.304 299.347 432.832ZM313.978 423.456V440H318.522V432.544C318.522 431.797 318.597 431.104 318.746 430.464C318.895 429.824 319.141 429.269 319.482 428.8C319.845 428.309 320.314 427.925 320.89 427.648C321.466 427.371 322.17 427.232 323.002 427.232C323.279 427.232 323.567 427.253 323.866 427.296C324.165 427.317 324.421 427.349 324.634 427.392V423.168C324.271 423.061 323.941 423.008 323.642 423.008C323.066 423.008 322.511 423.093 321.978 423.264C321.445 423.435 320.943 423.68 320.474 424C320.005 424.299 319.589 424.672 319.226 425.12C318.863 425.547 318.575 426.016 318.362 426.528H318.298V423.456H313.978ZM329.936 434.624H325.616C325.658 435.733 325.904 436.661 326.352 437.408C326.821 438.133 327.408 438.72 328.112 439.168C328.837 439.616 329.658 439.936 330.576 440.128C331.493 440.32 332.432 440.416 333.392 440.416C334.33 440.416 335.248 440.32 336.144 440.128C337.061 439.957 337.872 439.648 338.576 439.2C339.28 438.752 339.845 438.165 340.272 437.44C340.72 436.693 340.944 435.776 340.944 434.688C340.944 433.92 340.794 433.28 340.496 432.768C340.197 432.235 339.802 431.797 339.312 431.456C338.821 431.093 338.256 430.805 337.616 430.592C336.997 430.379 336.357 430.197 335.696 430.048C335.056 429.899 334.426 429.76 333.808 429.632C333.189 429.504 332.634 429.365 332.144 429.216C331.674 429.045 331.29 428.832 330.992 428.576C330.693 428.32 330.544 427.989 330.544 427.584C330.544 427.243 330.629 426.976 330.8 426.784C330.97 426.571 331.173 426.411 331.408 426.304C331.664 426.197 331.941 426.133 332.24 426.112C332.538 426.069 332.816 426.048 333.072 426.048C333.882 426.048 334.586 426.208 335.184 426.528C335.781 426.827 336.112 427.413 336.176 428.288H340.496C340.41 427.264 340.144 426.421 339.696 425.76C339.269 425.077 338.725 424.533 338.064 424.128C337.402 423.723 336.645 423.435 335.792 423.264C334.96 423.093 334.096 423.008 333.2 423.008C332.304 423.008 331.429 423.093 330.576 423.264C329.722 423.413 328.954 423.691 328.272 424.096C327.589 424.48 327.034 425.013 326.608 425.696C326.202 426.379 326 427.253 326 428.32C326 429.045 326.149 429.664 326.448 430.176C326.746 430.667 327.141 431.083 327.632 431.424C328.122 431.744 328.677 432.011 329.296 432.224C329.936 432.416 330.586 432.587 331.248 432.736C332.869 433.077 334.128 433.419 335.024 433.76C335.941 434.101 336.4 434.613 336.4 435.296C336.4 435.701 336.304 436.043 336.112 436.32C335.92 436.576 335.674 436.789 335.376 436.96C335.098 437.109 334.778 437.227 334.416 437.312C334.074 437.376 333.744 437.408 333.424 437.408C332.976 437.408 332.538 437.355 332.112 437.248C331.706 437.141 331.344 436.981 331.024 436.768C330.704 436.533 330.437 436.245 330.224 435.904C330.032 435.541 329.936 435.115 329.936 434.624ZM349.363 423.456V418.496H344.819V423.456H342.067V426.496H344.819V436.256C344.819 437.088 344.958 437.76 345.235 438.272C345.512 438.784 345.886 439.179 346.355 439.456C346.846 439.733 347.4 439.915 348.019 440C348.659 440.107 349.331 440.16 350.035 440.16C350.483 440.16 350.942 440.149 351.411 440.128C351.88 440.107 352.307 440.064 352.691 440V436.48C352.478 436.523 352.254 436.555 352.019 436.576C351.784 436.597 351.539 436.608 351.283 436.608C350.515 436.608 350.003 436.48 349.747 436.224C349.491 435.968 349.363 435.456 349.363 434.688V426.496H352.691V423.456H349.363ZM358.885 431.744C358.885 431.083 358.949 430.432 359.077 429.792C359.205 429.152 359.418 428.587 359.717 428.096C360.037 427.605 360.453 427.211 360.965 426.912C361.477 426.592 362.117 426.432 362.885 426.432C363.653 426.432 364.293 426.592 364.805 426.912C365.338 427.211 365.754 427.605 366.053 428.096C366.373 428.587 366.597 429.152 366.725 429.792C366.853 430.432 366.917 431.083 366.917 431.744C366.917 432.405 366.853 433.056 366.725 433.696C366.597 434.315 366.373 434.88 366.053 435.392C365.754 435.883 365.338 436.277 364.805 436.576C364.293 436.875 363.653 437.024 362.885 437.024C362.117 437.024 361.477 436.875 360.965 436.576C360.453 436.277 360.037 435.883 359.717 435.392C359.418 434.88 359.205 434.315 359.077 433.696C358.949 433.056 358.885 432.405 358.885 431.744ZM354.341 431.744C354.341 433.067 354.544 434.261 354.949 435.328C355.354 436.395 355.93 437.312 356.677 438.08C357.424 438.827 358.32 439.403 359.365 439.808C360.41 440.213 361.584 440.416 362.885 440.416C364.186 440.416 365.36 440.213 366.405 439.808C367.472 439.403 368.378 438.827 369.125 438.08C369.872 437.312 370.448 436.395 370.853 435.328C371.258 434.261 371.461 433.067 371.461 431.744C371.461 430.421 371.258 429.227 370.853 428.16C370.448 427.072 369.872 426.155 369.125 425.408C368.378 424.64 367.472 424.053 366.405 423.648C365.36 423.221 364.186 423.008 362.885 423.008C361.584 423.008 360.41 423.221 359.365 423.648C358.32 424.053 357.424 424.64 356.677 425.408C355.93 426.155 355.354 427.072 354.949 428.16C354.544 429.227 354.341 430.421 354.341 431.744ZM385.68 429.28H390.128C390.064 428.213 389.808 427.296 389.36 426.528C388.912 425.739 388.325 425.088 387.6 424.576C386.896 424.043 386.085 423.648 385.168 423.392C384.272 423.136 383.333 423.008 382.352 423.008C381.008 423.008 379.813 423.232 378.768 423.68C377.722 424.128 376.837 424.757 376.112 425.568C375.386 426.357 374.832 427.307 374.448 428.416C374.085 429.504 373.904 430.688 373.904 431.968C373.904 433.205 374.106 434.347 374.512 435.392C374.917 436.416 375.482 437.301 376.208 438.048C376.933 438.795 377.808 439.381 378.832 439.808C379.877 440.213 381.018 440.416 382.256 440.416C384.453 440.416 386.256 439.84 387.664 438.688C389.072 437.536 389.925 435.861 390.224 433.664H385.84C385.69 434.688 385.317 435.509 384.72 436.128C384.144 436.725 383.312 437.024 382.224 437.024C381.52 437.024 380.922 436.864 380.432 436.544C379.941 436.224 379.546 435.819 379.248 435.328C378.97 434.816 378.768 434.251 378.64 433.632C378.512 433.013 378.448 432.405 378.448 431.808C378.448 431.189 378.512 430.571 378.64 429.952C378.768 429.312 378.981 428.736 379.28 428.224C379.6 427.691 380.005 427.264 380.496 426.944C380.986 426.603 381.594 426.432 382.32 426.432C384.261 426.432 385.381 427.381 385.68 429.28ZM393.207 417.152V440H397.751V434.304L399.51 432.608L404.055 440H409.559L402.615 429.536L408.855 423.456H403.479L397.751 429.408V417.152H393.207ZM414.686 434.624H410.366C410.408 435.733 410.654 436.661 411.102 437.408C411.571 438.133 412.158 438.72 412.862 439.168C413.587 439.616 414.408 439.936 415.326 440.128C416.243 440.32 417.182 440.416 418.142 440.416C419.08 440.416 419.998 440.32 420.894 440.128C421.811 439.957 422.622 439.648 423.326 439.2C424.03 438.752 424.595 438.165 425.022 437.44C425.47 436.693 425.694 435.776 425.694 434.688C425.694 433.92 425.544 433.28 425.246 432.768C424.947 432.235 424.552 431.797 424.062 431.456C423.571 431.093 423.006 430.805 422.366 430.592C421.747 430.379 421.107 430.197 420.446 430.048C419.806 429.899 419.176 429.76 418.558 429.632C417.939 429.504 417.384 429.365 416.894 429.216C416.424 429.045 416.04 428.832 415.742 428.576C415.443 428.32 415.294 427.989 415.294 427.584C415.294 427.243 415.379 426.976 415.55 426.784C415.72 426.571 415.923 426.411 416.158 426.304C416.414 426.197 416.691 426.133 416.99 426.112C417.288 426.069 417.566 426.048 417.822 426.048C418.632 426.048 419.336 426.208 419.934 426.528C420.531 426.827 420.862 427.413 420.926 428.288H425.246C425.16 427.264 424.894 426.421 424.446 425.76C424.019 425.077 423.475 424.533 422.814 424.128C422.152 423.723 421.395 423.435 420.542 423.264C419.71 423.093 418.846 423.008 417.95 423.008C417.054 423.008 416.179 423.093 415.326 423.264C414.472 423.413 413.704 423.691 413.022 424.096C412.339 424.48 411.784 425.013 411.358 425.696C410.952 426.379 410.75 427.253 410.75 428.32C410.75 429.045 410.899 429.664 411.198 430.176C411.496 430.667 411.891 431.083 412.382 431.424C412.872 431.744 413.427 432.011 414.046 432.224C414.686 432.416 415.336 432.587 415.998 432.736C417.619 433.077 418.878 433.419 419.774 433.76C420.691 434.101 421.15 434.613 421.15 435.296C421.15 435.701 421.054 436.043 420.862 436.32C420.67 436.576 420.424 436.789 420.126 436.96C419.848 437.109 419.528 437.227 419.166 437.312C418.824 437.376 418.494 437.408 418.174 437.408C417.726 437.408 417.288 437.355 416.862 437.248C416.456 437.141 416.094 436.981 415.774 436.768C415.454 436.533 415.187 436.245 414.974 435.904C414.782 435.541 414.686 435.115 414.686 434.624ZM434.113 423.456V418.496H429.569V423.456H426.817V426.496H429.569V436.256C429.569 437.088 429.708 437.76 429.985 438.272C430.262 438.784 430.636 439.179 431.105 439.456C431.596 439.733 432.15 439.915 432.769 440C433.409 440.107 434.081 440.16 434.785 440.16C435.233 440.16 435.692 440.149 436.161 440.128C436.63 440.107 437.057 440.064 437.441 440V436.48C437.228 436.523 437.004 436.555 436.769 436.576C436.534 436.597 436.289 436.608 436.033 436.608C435.265 436.608 434.753 436.48 434.497 436.224C434.241 435.968 434.113 435.456 434.113 434.688V426.496H437.441V423.456H434.113ZM447.763 442.048L454.675 423.456H449.971L446.355 434.784H446.291L442.547 423.456H437.715L443.507 438.976C443.635 439.296 443.699 439.637 443.699 440C443.699 440.491 443.55 440.939 443.251 441.344C442.974 441.749 442.536 441.984 441.939 442.048C441.491 442.069 441.043 442.059 440.595 442.016C440.147 441.973 439.71 441.931 439.283 441.888V445.632C439.752 445.675 440.211 445.707 440.659 445.728C441.128 445.771 441.598 445.792 442.067 445.792C443.624 445.792 444.84 445.504 445.715 444.928C446.59 444.352 447.272 443.392 447.763 442.048ZM456.325 417.152V440H460.869V417.152H456.325ZM475.583 429.952H468.191C468.212 429.632 468.276 429.269 468.383 428.864C468.511 428.459 468.713 428.075 468.991 427.712C469.289 427.349 469.673 427.051 470.143 426.816C470.633 426.56 471.241 426.432 471.967 426.432C473.076 426.432 473.897 426.731 474.431 427.328C474.985 427.925 475.369 428.8 475.583 429.952ZM468.191 432.832H480.127C480.212 431.552 480.105 430.325 479.807 429.152C479.508 427.979 479.017 426.933 478.335 426.016C477.673 425.099 476.82 424.373 475.775 423.84C474.729 423.285 473.503 423.008 472.095 423.008C470.836 423.008 469.684 423.232 468.639 423.68C467.615 424.128 466.729 424.747 465.983 425.536C465.236 426.304 464.66 427.221 464.255 428.288C463.849 429.355 463.647 430.507 463.647 431.744C463.647 433.024 463.839 434.197 464.223 435.264C464.628 436.331 465.193 437.248 465.919 438.016C466.644 438.784 467.529 439.381 468.575 439.808C469.62 440.213 470.793 440.416 472.095 440.416C473.972 440.416 475.572 439.989 476.895 439.136C478.217 438.283 479.199 436.864 479.839 434.88H475.839C475.689 435.392 475.284 435.883 474.623 436.352C473.961 436.8 473.172 437.024 472.255 437.024C470.975 437.024 469.993 436.693 469.311 436.032C468.628 435.371 468.255 434.304 468.191 432.832Z" fill="#2F3337"/>
<rect x="218" y="527" width="282.288" height="63" rx="4.84615" fill="white"/>
<path d="M259.83 547.58V569H274.71V566.6H262.68V559.19H273.81V556.79H262.68V549.98H274.62V547.58H259.83ZM281.92 560.84L276.1 569H279.19L283.51 562.58L287.83 569H291.1L285.1 560.63L290.44 553.49H287.38L283.51 558.92L279.79 553.49H276.52L281.92 560.84ZM293.367 553.49V574.91H295.917V566.93H295.977C296.257 567.39 296.597 567.78 296.997 568.1C297.417 568.4 297.857 568.64 298.317 568.82C298.777 569 299.237 569.13 299.697 569.21C300.177 569.29 300.607 569.33 300.987 569.33C302.167 569.33 303.197 569.12 304.077 568.7C304.977 568.28 305.717 567.71 306.297 566.99C306.897 566.25 307.337 565.39 307.617 564.41C307.917 563.43 308.067 562.39 308.067 561.29C308.067 560.19 307.917 559.15 307.617 558.17C307.317 557.19 306.867 556.33 306.267 555.59C305.687 554.83 304.947 554.23 304.047 553.79C303.167 553.35 302.127 553.13 300.927 553.13C299.847 553.13 298.857 553.33 297.957 553.73C297.057 554.11 296.397 554.73 295.977 555.59H295.917V553.49H293.367ZM305.367 561.11C305.367 561.87 305.287 562.61 305.127 563.33C304.967 564.05 304.707 564.69 304.347 565.25C303.987 565.81 303.507 566.26 302.907 566.6C302.327 566.94 301.597 567.11 300.717 567.11C299.837 567.11 299.087 566.95 298.467 566.63C297.847 566.29 297.337 565.85 296.937 565.31C296.557 564.77 296.277 564.15 296.097 563.45C295.917 562.73 295.827 561.99 295.827 561.23C295.827 560.51 295.907 559.8 296.067 559.1C296.247 558.4 296.527 557.78 296.907 557.24C297.287 556.68 297.777 556.23 298.377 555.89C298.977 555.55 299.707 555.38 300.567 555.38C301.387 555.38 302.097 555.54 302.697 555.86C303.317 556.18 303.817 556.61 304.197 557.15C304.597 557.69 304.887 558.31 305.067 559.01C305.267 559.69 305.367 560.39 305.367 561.11ZM311.211 547.58V569H313.761V547.58H311.211ZM319.571 561.26C319.571 560.32 319.691 559.49 319.931 558.77C320.191 558.03 320.541 557.41 320.981 556.91C321.421 556.41 321.931 556.03 322.511 555.77C323.111 555.51 323.741 555.38 324.401 555.38C325.061 555.38 325.681 555.51 326.261 555.77C326.861 556.03 327.381 556.41 327.821 556.91C328.261 557.41 328.601 558.03 328.841 558.77C329.101 559.49 329.231 560.32 329.231 561.26C329.231 562.2 329.101 563.04 328.841 563.78C328.601 564.5 328.261 565.11 327.821 565.61C327.381 566.09 326.861 566.46 326.261 566.72C325.681 566.98 325.061 567.11 324.401 567.11C323.741 567.11 323.111 566.98 322.511 566.72C321.931 566.46 321.421 566.09 320.981 565.61C320.541 565.11 320.191 564.5 319.931 563.78C319.691 563.04 319.571 562.2 319.571 561.26ZM316.871 561.26C316.871 562.4 317.031 563.46 317.351 564.44C317.671 565.42 318.151 566.28 318.791 567.02C319.431 567.74 320.221 568.31 321.161 568.73C322.101 569.13 323.181 569.33 324.401 569.33C325.641 569.33 326.721 569.13 327.641 568.73C328.581 568.31 329.371 567.74 330.011 567.02C330.651 566.28 331.131 565.42 331.451 564.44C331.771 563.46 331.931 562.4 331.931 561.26C331.931 560.12 331.771 559.06 331.451 558.08C331.131 557.08 330.651 556.22 330.011 555.5C329.371 554.76 328.581 554.18 327.641 553.76C326.721 553.34 325.641 553.13 324.401 553.13C323.181 553.13 322.101 553.34 321.161 553.76C320.221 554.18 319.431 554.76 318.791 555.5C318.151 556.22 317.671 557.08 317.351 558.08C317.031 559.06 316.871 560.12 316.871 561.26ZM334.848 553.49V569H337.398V562.1C337.398 561.1 337.498 560.22 337.698 559.46C337.898 558.68 338.218 558.02 338.658 557.48C339.098 556.94 339.678 556.53 340.398 556.25C341.118 555.97 341.988 555.83 343.008 555.83V553.13C341.628 553.09 340.488 553.37 339.588 553.97C338.688 554.57 337.928 555.5 337.308 556.76H337.248V553.49H334.848ZM355.17 559.76H346.26C346.3 559.16 346.43 558.6 346.65 558.08C346.87 557.54 347.17 557.07 347.55 556.67C347.93 556.27 348.38 555.96 348.9 555.74C349.44 555.5 350.04 555.38 350.7 555.38C351.34 555.38 351.92 555.5 352.44 555.74C352.98 555.96 353.44 556.27 353.82 556.67C354.22 557.05 354.53 557.51 354.75 558.05C354.99 558.59 355.13 559.16 355.17 559.76ZM357.63 564.08H355.11C354.89 565.1 354.43 565.86 353.73 566.36C353.05 566.86 352.17 567.11 351.09 567.11C350.25 567.11 349.52 566.97 348.9 566.69C348.28 566.41 347.77 566.04 347.37 565.58C346.97 565.1 346.68 564.56 346.5 563.96C346.32 563.34 346.24 562.69 346.26 562.01H357.87C357.91 561.07 357.82 560.08 357.6 559.04C357.4 558 357.02 557.04 356.46 556.16C355.92 555.28 355.19 554.56 354.27 554C353.37 553.42 352.23 553.13 350.85 553.13C349.79 553.13 348.81 553.33 347.91 553.73C347.03 554.13 346.26 554.69 345.6 555.41C344.96 556.13 344.46 556.98 344.1 557.96C343.74 558.94 343.56 560.02 343.56 561.2C343.6 562.38 343.77 563.47 344.07 564.47C344.39 565.47 344.86 566.33 345.48 567.05C346.1 567.77 346.86 568.33 347.76 568.73C348.68 569.13 349.76 569.33 351 569.33C352.76 569.33 354.22 568.89 355.38 568.01C356.54 567.13 357.29 565.82 357.63 564.08ZM369.283 547.58V569H372.133V559.85H379.093C379.793 559.85 380.353 559.96 380.773 560.18C381.193 560.38 381.533 560.66 381.793 561.02C382.053 561.36 382.243 561.77 382.363 562.25C382.483 562.71 382.583 563.2 382.663 563.72C382.763 564.24 382.823 564.77 382.843 565.31C382.863 565.85 382.883 566.36 382.903 566.84C382.923 567.3 382.963 567.72 383.023 568.1C383.103 568.48 383.243 568.78 383.443 569H386.623C386.323 568.64 386.093 568.23 385.933 567.77C385.793 567.29 385.683 566.79 385.603 566.27C385.523 565.75 385.473 565.22 385.453 564.68C385.433 564.14 385.403 563.61 385.363 563.09C385.303 562.57 385.213 562.07 385.093 561.59C384.993 561.11 384.823 560.68 384.583 560.3C384.363 559.9 384.053 559.56 383.653 559.28C383.273 559 382.773 558.8 382.153 558.68V558.62C383.453 558.26 384.393 557.59 384.973 556.61C385.573 555.63 385.873 554.49 385.873 553.19C385.873 551.45 385.293 550.08 384.133 549.08C382.993 548.08 381.403 547.58 379.363 547.58H369.283ZM378.073 557.45H372.133V549.98H379.213C380.553 549.98 381.523 550.32 382.123 551C382.723 551.68 383.023 552.56 383.023 553.64C383.023 554.42 382.883 555.06 382.603 555.56C382.343 556.04 381.983 556.43 381.523 556.73C381.083 557.01 380.563 557.2 379.963 557.3C379.363 557.4 378.733 557.45 378.073 557.45ZM391.26 561.26C391.26 560.32 391.38 559.49 391.62 558.77C391.88 558.03 392.23 557.41 392.67 556.91C393.11 556.41 393.62 556.03 394.2 555.77C394.8 555.51 395.43 555.38 396.09 555.38C396.75 555.38 397.37 555.51 397.95 555.77C398.55 556.03 399.07 556.41 399.51 556.91C399.95 557.41 400.29 558.03 400.53 558.77C400.79 559.49 400.92 560.32 400.92 561.26C400.92 562.2 400.79 563.04 400.53 563.78C400.29 564.5 399.95 565.11 399.51 565.61C399.07 566.09 398.55 566.46 397.95 566.72C397.37 566.98 396.75 567.11 396.09 567.11C395.43 567.11 394.8 566.98 394.2 566.72C393.62 566.46 393.11 566.09 392.67 565.61C392.23 565.11 391.88 564.5 391.62 563.78C391.38 563.04 391.26 562.2 391.26 561.26ZM388.56 561.26C388.56 562.4 388.72 563.46 389.04 564.44C389.36 565.42 389.84 566.28 390.48 567.02C391.12 567.74 391.91 568.31 392.85 568.73C393.79 569.13 394.87 569.33 396.09 569.33C397.33 569.33 398.41 569.13 399.33 568.73C400.27 568.31 401.06 567.74 401.7 567.02C402.34 566.28 402.82 565.42 403.14 564.44C403.46 563.46 403.62 562.4 403.62 561.26C403.62 560.12 403.46 559.06 403.14 558.08C402.82 557.08 402.34 556.22 401.7 555.5C401.06 554.76 400.27 554.18 399.33 553.76C398.41 553.34 397.33 553.13 396.09 553.13C394.87 553.13 393.79 553.34 392.85 553.76C391.91 554.18 391.12 554.76 390.48 555.5C389.84 556.22 389.36 557.08 389.04 558.08C388.72 559.06 388.56 560.12 388.56 561.26ZM408.487 561.26C408.487 560.32 408.607 559.49 408.847 558.77C409.107 558.03 409.457 557.41 409.897 556.91C410.337 556.41 410.847 556.03 411.427 555.77C412.027 555.51 412.657 555.38 413.317 555.38C413.977 555.38 414.597 555.51 415.177 555.77C415.777 556.03 416.297 556.41 416.737 556.91C417.177 557.41 417.517 558.03 417.757 558.77C418.017 559.49 418.147 560.32 418.147 561.26C418.147 562.2 418.017 563.04 417.757 563.78C417.517 564.5 417.177 565.11 416.737 565.61C416.297 566.09 415.777 566.46 415.177 566.72C414.597 566.98 413.977 567.11 413.317 567.11C412.657 567.11 412.027 566.98 411.427 566.72C410.847 566.46 410.337 566.09 409.897 565.61C409.457 565.11 409.107 564.5 408.847 563.78C408.607 563.04 408.487 562.2 408.487 561.26ZM405.787 561.26C405.787 562.4 405.947 563.46 406.267 564.44C406.587 565.42 407.067 566.28 407.707 567.02C408.347 567.74 409.137 568.31 410.077 568.73C411.017 569.13 412.097 569.33 413.317 569.33C414.557 569.33 415.637 569.13 416.557 568.73C417.497 568.31 418.287 567.74 418.927 567.02C419.567 566.28 420.047 565.42 420.367 564.44C420.687 563.46 420.847 562.4 420.847 561.26C420.847 560.12 420.687 559.06 420.367 558.08C420.047 557.08 419.567 556.22 418.927 555.5C418.287 554.76 417.497 554.18 416.557 553.76C415.637 553.34 414.557 553.13 413.317 553.13C412.097 553.13 411.017 553.34 410.077 553.76C409.137 554.18 408.347 554.76 407.707 555.5C407.067 556.22 406.587 557.08 406.267 558.08C405.947 559.06 405.787 560.12 405.787 561.26ZM423.854 553.49V569H426.404V559.34C426.404 559.04 426.474 558.67 426.614 558.23C426.774 557.77 427.014 557.33 427.334 556.91C427.674 556.49 428.104 556.13 428.624 555.83C429.164 555.53 429.804 555.38 430.544 555.38C431.124 555.38 431.594 555.47 431.954 555.65C432.334 555.81 432.634 556.05 432.854 556.37C433.074 556.67 433.224 557.03 433.304 557.45C433.404 557.87 433.454 558.33 433.454 558.83V569H436.004V559.34C436.004 558.14 436.364 557.18 437.084 556.46C437.804 555.74 438.794 555.38 440.054 555.38C440.674 555.38 441.174 555.47 441.554 555.65C441.954 555.83 442.264 556.08 442.484 556.4C442.704 556.7 442.854 557.06 442.934 557.48C443.014 557.9 443.054 558.35 443.054 558.83V569H445.604V557.63C445.604 556.83 445.474 556.15 445.214 555.59C444.974 555.01 444.624 554.54 444.164 554.18C443.724 553.82 443.184 553.56 442.544 553.4C441.924 553.22 441.224 553.13 440.444 553.13C439.424 553.13 438.484 553.36 437.624 553.82C436.784 554.28 436.104 554.93 435.584 555.77C435.264 554.81 434.714 554.13 433.934 553.73C433.154 553.33 432.284 553.13 431.324 553.13C429.144 553.13 427.474 554.01 426.314 555.77H426.254V553.49H423.854ZM450.99 564.11H448.44C448.48 565.07 448.68 565.89 449.04 566.57C449.4 567.23 449.88 567.77 450.48 568.19C451.08 568.59 451.77 568.88 452.55 569.06C453.33 569.24 454.15 569.33 455.01 569.33C455.79 569.33 456.57 569.25 457.35 569.09C458.15 568.95 458.86 568.69 459.48 568.31C460.12 567.93 460.63 567.43 461.01 566.81C461.41 566.19 461.61 565.41 461.61 564.47C461.61 563.73 461.46 563.11 461.16 562.61C460.88 562.11 460.5 561.7 460.02 561.38C459.56 561.04 459.02 560.77 458.4 560.57C457.8 560.37 457.18 560.2 456.54 560.06C455.94 559.92 455.34 559.79 454.74 559.67C454.14 559.53 453.6 559.37 453.12 559.19C452.64 558.99 452.24 558.75 451.92 558.47C451.62 558.17 451.47 557.8 451.47 557.36C451.47 556.96 451.57 556.64 451.77 556.4C451.97 556.14 452.23 555.94 452.55 555.8C452.87 555.64 453.22 555.53 453.6 555.47C454 555.41 454.39 555.38 454.77 555.38C455.19 555.38 455.6 555.43 456 555.53C456.42 555.61 456.8 555.75 457.14 555.95C457.48 556.15 457.76 556.42 457.98 556.76C458.2 557.08 458.33 557.49 458.37 557.99H460.92C460.86 557.05 460.66 556.27 460.32 555.65C459.98 555.01 459.52 554.51 458.94 554.15C458.38 553.77 457.73 553.51 456.99 553.37C456.25 553.21 455.44 553.13 454.56 553.13C453.88 553.13 453.19 553.22 452.49 553.4C451.81 553.56 451.19 553.82 450.63 554.18C450.09 554.52 449.64 554.97 449.28 555.53C448.94 556.09 448.77 556.76 448.77 557.54C448.77 558.54 449.02 559.32 449.52 559.88C450.02 560.44 450.64 560.88 451.38 561.2C452.14 561.5 452.96 561.74 453.84 561.92C454.72 562.08 455.53 562.27 456.27 562.49C457.03 562.69 457.66 562.96 458.16 563.3C458.66 563.64 458.91 564.14 458.91 564.8C458.91 565.28 458.79 565.68 458.55 566C458.31 566.3 458 566.53 457.62 566.69C457.26 566.85 456.86 566.96 456.42 567.02C455.98 567.08 455.56 567.11 455.16 567.11C454.64 567.11 454.13 567.06 453.63 566.96C453.15 566.86 452.71 566.7 452.31 566.48C451.93 566.24 451.62 565.93 451.38 565.55C451.14 565.15 451.01 564.67 450.99 564.11Z" fill="#2F3337"/>
</g>
<defs>
<filter id="filter0_d_816_2242" x="328" y="52" width="66.1836" height="66.1456" filterUnits="userSpaceOnUse" color-interpolation-filters="sRGB">
<feFlood flood-opacity="0" result="BackgroundImageFix"/>
<feColorMatrix in="SourceAlpha" type="matrix" values="0 0 0 0 0 0 0 0 0 0 0 0 0 0 0 0 0 0 127 0" result="hardAlpha"/>
<feOffset dy="2"/>
<feGaussianBlur stdDeviation="1"/>
<feColorMatrix type="matrix" values="0 0 0 0 0.184314 0 0 0 0 0.2 0 0 0 0 0.215686 0 0 0 0.2 0"/>
<feBlend mode="normal" in2="BackgroundImageFix" result="effect1_dropShadow_816_2242"/>
<feBlend mode="normal" in="SourceGraphic" in2="effect1_dropShadow_816_2242" result="shape"/>
</filter>
<filter id="filter1_d_816_2242" x="463" y="161" width="66.1836" height="66.1456" filterUnits="userSpaceOnUse" color-interpolation-filters="sRGB">
<feFlood flood-opacity="0" result="BackgroundImageFix"/>
<feColorMatrix in="SourceAlpha" type="matrix" values="0 0 0 0 0 0 0 0 0 0 0 0 0 0 0 0 0 0 127 0" result="hardAlpha"/>
<feOffset dy="2"/>
<feGaussianBlur stdDeviation="1"/>
<feColorMatrix type="matrix" values="0 0 0 0 0.184314 0 0 0 0 0.2 0 0 0 0 0.215686 0 0 0 0.2 0"/>
<feBlend mode="normal" in2="BackgroundImageFix" result="effect1_dropShadow_816_2242"/>
<feBlend mode="normal" in="SourceGraphic" in2="effect1_dropShadow_816_2242" result="shape"/>
</filter>
<filter id="filter2_d_816_2242" x="64" y="250" width="66.1836" height="66.1456" filterUnits="userSpaceOnUse" color-interpolation-filters="sRGB">
<feFlood flood-opacity="0" result="BackgroundImageFix"/>
<feColorMatrix in="SourceAlpha" type="matrix" values="0 0 0 0 0 0 0 0 0 0 0 0 0 0 0 0 0 0 127 0" result="hardAlpha"/>
<feOffset dy="2"/>
<feGaussianBlur stdDeviation="1"/>
<feColorMatrix type="matrix" values="0 0 0 0 0.184314 0 0 0 0 0.2 0 0 0 0 0.215686 0 0 0 0.2 0"/>
<feBlend mode="normal" in2="BackgroundImageFix" result="effect1_dropShadow_816_2242"/>
<feBlend mode="normal" in="SourceGraphic" in2="effect1_dropShadow_816_2242" result="shape"/>
</filter>
<clipPath id="clip0_816_2242">
<rect width="719" height="625" fill="white"/>
</clipPath>
</defs>
</svg>
